<svg xmlns="http://www.w3.org/2000/svg" xmlns:xlink="http://www.w3.org/1999/xlink" width="512" height="512" viewBox="0 0 512 512">
  <defs>
    <radialGradient id="radial-gradient" cx="0.5" cy="0.5" r="0.5" gradientUnits="objectBoundingBox">
      <stop offset="0"/>
      <stop offset="1" stop-color="#311a06"/>
    </radialGradient>
    <clipPath id="clip-path">
      <circle id="mask" cx="240" cy="240" r="240" transform="translate(16 16)" fill="none"/>
    </clipPath>
    <radialGradient id="radial-gradient-2" cx="0.5" cy="0.5" r="0.5" gradientUnits="objectBoundingBox">
      <stop offset="0" stop-color="#763a0d"/>
      <stop offset="1" stop-color="#3b1d07"/>
    </radialGradient>
    <radialGradient id="radial-gradient-3" cx="0.5" cy="0.5" r="0.5" gradientUnits="objectBoundingBox">
      <stop offset="0" stop-color="#fffdf8"/>
      <stop offset="1" stop-color="#f7d17d"/>
    </radialGradient>
    <clipPath id="clip-logo">
      <rect width="512" height="512"/>
    </clipPath>
  </defs>
  <g id="logo" clip-path="url(#clip-logo)">
    <circle id="back" cx="240" cy="240" r="240" fill="url(#radial-gradient)" transform="translate(16 16)" stroke-linecap="round" stroke-linejoin="round" stroke-width="16" stroke="#2e1806"/>
    <g id="light" clip-path="url(#clip-path)">
      <rect id="light-2" data-name="light" width="512" height="512" rx="256" transform="translate(0 -119)" fill="url(#radial-gradient-2)"/>
    </g>
    <g id="core" transform="translate(0 34)">
      <g id="python" transform="translate(-335.361 -175.725)">
        <g id="shape" transform="translate(473.361 251.725)">
          <g id="top" transform="translate(-44.937 -67.469)" fill="#d88c35">
            <path d="M 77.86978149414062 240.2920074462891 C 77.01963806152344 240.2920074462891 74.71773529052734 240.1873474121094 71.71183013916016 239.2178649902344 C 67.90818786621094 237.9911041259766 64.42153930664062 235.8617706298828 61.3487548828125 232.8889770507812 C 57.15668487548828 228.8333435058594 53.82020950317383 223.2625732421875 51.4319953918457 216.3314056396484 C 48.44966125488281 207.6759643554688 46.93749618530273 196.8541717529297 46.93749618530273 184.1666564941406 C 46.93749618530273 172.2513427734375 48.46973419189453 162.0644378662109 51.49166107177734 153.888916015625 C 53.95309066772461 147.2296752929688 57.42063903808594 141.8516693115234 61.79799652099609 137.9042510986328 C 69.52985382080078 130.9317474365234 78.14353942871094 130.1790008544922 81.48802185058594 130.1790008544922 C 82.35518646240234 130.1790008544922 82.87588500976562 130.2299652099609 82.92518615722656 130.2350006103516 L 83.04120635986328 130.2487640380859 L 83.14892578125 130.2475280761719 L 162.7671203613281 130.2475280761719 L 164.7671203613281 130.2475280761719 L 164.7671203613281 128.2475280761719 L 164.7671203613281 120.1925048828125 L 164.7671203613281 118.1925048828125 L 162.7671203613281 118.1925048828125 L 107.7779006958008 118.1925048828125 L 107.7162780761719 93.35967254638672 L 107.7158737182617 93.20155334472656 L 107.6971817016602 93.08766937255859 C 107.6845474243164 92.97295379638672 107.565299987793 91.75303649902344 107.9702072143555 89.96193695068359 C 108.5363998413086 87.45745849609375 109.8068542480469 85.07229614257812 111.7462310791016 82.87269592285156 C 117.1376876831055 76.75786590576172 130.1810150146484 69.46874237060547 161.7019653320312 69.46874237060547 C 175.5739288330078 69.46874237060547 187.1480407714844 71.04143524169922 196.1027984619141 74.14310455322266 C 203.1232147216797 76.57476806640625 208.5286865234375 79.93757629394531 212.1690673828125 84.13817596435547 C 214.7232055664062 87.08536529541016 216.3643798828125 90.37184143066406 217.0469665527344 93.90629577636719 C 217.5465698242188 96.49327850341797 217.322509765625 98.28128814697266 217.3079833984375 98.39018249511719 L 217.2820892333984 98.54691314697266 L 217.285400390625 98.69026947021484 L 217.285400390625 150.2823181152344 C 217.285400390625 156.7961273193359 215.8211212158203 162.3280334472656 212.9332122802734 166.724365234375 C 210.6188507080078 170.2475738525391 207.3645172119141 173.0898895263672 203.2605590820312 175.1723175048828 C 195.9833526611328 178.8649597167969 188.4615936279297 178.9718170166016 187.6262512207031 178.9718170166016 C 187.6261444091797 178.9718170166016 187.6260681152344 178.9718170166016 187.6259765625 178.9718170166016 C 187.5890655517578 178.9718170166016 187.5670013427734 178.9716033935547 187.5608520507812 178.9715118408203 L 187.5448455810547 178.9712524414062 L 187.5313110351562 178.9712982177734 L 131.0130462646484 178.9712982177734 C 120.3648300170898 178.9712982177734 111.8999710083008 182.1372680664062 105.8535919189453 188.3812713623047 C 103.5176391601562 190.7935791015625 101.5558547973633 193.6682739257812 100.0227813720703 196.9254760742188 C 98.80804443359375 199.5062866210938 97.8585205078125 202.3318634033203 97.20061492919922 205.3236999511719 C 96.12637329101562 210.2086486816406 96.18304443359375 213.9207153320312 96.19382476806641 214.3508453369141 L 96.19382476806641 240.2826232910156 L 78.28925323486328 240.2826232910156 L 78.21656799316406 240.2826232910156 L 78.16493225097656 240.2864532470703 C 78.14304351806641 240.2875366210938 78.04122924804688 240.2920074462891 77.86978149414062 240.2920074462891 Z M 130.28076171875 83.50933837890625 C 127.0044937133789 83.50933837890625 123.9267807006836 84.78274536132812 121.6145629882812 87.09498596191406 C 119.3023300170898 89.40719604492188 118.028923034668 92.48490905761719 118.028923034668 95.76117706298828 C 118.028923034668 99.03743743896484 119.3023300170898 102.1151504516602 121.6145629882812 104.427360534668 C 123.9267807006836 106.7396011352539 127.0044937133789 108.0130081176758 130.28076171875 108.0130081176758 C 133.5570220947266 108.0130081176758 136.6347351074219 106.7396011352539 138.9469451904297 104.427360534668 C 141.2591857910156 102.1151504516602 142.5325927734375 99.03743743896484 142.5325927734375 95.76117706298828 C 142.5325927734375 92.48490905761719 141.2591857910156 89.40719604492188 138.9469451904297 87.09498596191406 C 136.6347351074219 84.78274536132812 133.5570220947266 83.50933837890625 130.28076171875 83.50933837890625 Z" stroke="none"/>
            <path d="M 161.7019958496094 71.46873474121094 C 147.8876800537109 71.46873474121094 136.4862060546875 72.88858032226562 127.8142852783203 75.6888427734375 C 121.3473052978516 77.77708435058594 116.4878387451172 80.59208679199219 113.3708648681641 84.0556640625 C 111.6502075195312 85.96763610839844 110.5078582763672 88.02577209472656 109.9755249023438 90.1728515625 C 109.6199493408203 91.60697937011719 109.6664733886719 92.61624145507812 109.6814880371094 92.825439453125 L 109.7153930664062 92.9990234375 L 109.7162780761719 93.35469055175781 L 109.7729644775391 116.1925048828125 L 162.7671203613281 116.1925048828125 L 166.7671203613281 116.1925048828125 L 166.7671203613281 120.1925048828125 L 166.7671203613281 128.2475280761719 L 166.7671203613281 132.2475280761719 L 162.7671203613281 132.2475280761719 L 83.14891052246094 132.2475280761719 L 82.94462585449219 132.2527465820312 L 82.708740234375 132.2233581542969 C 82.63409423828125 132.2164459228516 82.19741821289062 132.1790008544922 81.48802185058594 132.1790008544922 C 78.37461853027344 132.1790008544922 70.35406494140625 132.8816070556641 63.13739013671875 139.3895111083984 C 59.00276184082031 143.1180572509766 55.71572875976562 148.2296600341797 53.36759948730469 154.5823211669922 C 50.42799377441406 162.53515625 48.93748474121094 172.48876953125 48.93748474121094 184.1666564941406 C 48.93748474121094 196.6319580078125 50.4129638671875 207.2345275878906 53.32289123535156 215.6799011230469 C 55.60757446289062 222.310546875 58.77572631835938 227.6169281005859 62.7393798828125 231.4515838623047 C 69.46902465820312 237.9621887207031 76.52388000488281 238.2919769287109 77.86978149414062 238.2919769287109 C 77.95834350585938 238.2919769287109 78.01853942871094 238.2904815673828 78.0474853515625 238.28955078125 L 78.1258544921875 238.2826080322266 L 78.28926086425781 238.2826080322266 L 94.19380187988281 238.2826080322266 L 94.19380187988281 214.3748779296875 C 94.16220092773438 213.0062255859375 94.05364990234375 197.6918640136719 104.4168090820312 186.9899597167969 C 107.43115234375 183.8771057128906 111.0577545166016 181.45166015625 115.1958923339844 179.7810363769531 C 119.8139343261719 177.9166412353516 125.1356048583984 176.9712982177734 131.0130157470703 176.9712982177734 L 187.5313110351562 176.9712982177734 L 187.5533447265625 176.9709014892578 L 187.5895385742188 176.9716796875 L 187.6259155273438 176.9718170166016 C 187.9891967773438 176.9718170166016 189.9414367675781 176.9481658935547 192.7043304443359 176.4808654785156 C 196.2450561523438 175.8820495605469 199.4921875 174.8417358398438 202.3555450439453 173.3887939453125 C 206.1446533203125 171.4661102294922 209.1410675048828 168.8544311523438 211.2615966796875 165.6262969970703 C 213.9315948486328 161.5616912841797 215.2853851318359 156.3992462158203 215.2853851318359 150.2823181152344 L 215.2853851318359 98.69026184082031 L 215.2853851318359 98.38323974609375 L 215.3322296142578 98.07981872558594 C 215.3416290283203 98.01898193359375 216.1212005615234 91.81947326660156 210.7352600097656 85.53800964355469 C 207.3462066650391 81.58547973632812 202.2386474609375 78.39993286132812 195.5544891357422 76.06986999511719 C 186.7962036132812 73.01679992675781 175.4065704345703 71.46873474121094 161.7019958496094 71.46873474121094 M 130.28076171875 110.0130004882812 C 126.4702758789062 110.0130004882812 122.8903045654297 108.5315551757812 120.2003326416016 105.8415832519531 C 117.5103607177734 103.151611328125 116.0289154052734 99.57164001464844 116.0289154052734 95.76116943359375 C 116.0289154052734 91.95068359375 117.5103607177734 88.37071228027344 120.2003326416016 85.68074035644531 C 122.8903045654297 82.99076843261719 126.4702758789062 81.50935363769531 130.28076171875 81.50935363769531 C 134.0912322998047 81.50935363769531 137.6712036132812 82.99076843261719 140.3611755371094 85.68074035644531 C 143.0511474609375 88.37071228027344 144.5325927734375 91.95068359375 144.5325927734375 95.76116943359375 C 144.5325927734375 99.57164001464844 143.0511474609375 103.151611328125 140.3611755371094 105.8415832519531 C 137.6712036132812 108.5315551757812 134.0912322998047 110.0130004882812 130.28076171875 110.0130004882812 M 161.7019958496094 67.46873474121094 C 224.1065368652344 67.46873474121094 219.2853851318359 98.69026184082031 219.2853851318359 98.69026184082031 C 219.2853851318359 98.69026184082031 219.2853851318359 119.080078125 219.2853851318359 150.2823181152344 C 219.2853851318359 180.4923706054688 189.5190277099609 180.9718170166016 187.6259155273438 180.9718170166016 C 187.563720703125 180.9718170166016 187.5313110351562 180.9712982177734 187.5313110351562 180.9712982177734 C 187.5313110351562 180.9712982177734 164.9051208496094 180.9712982177734 131.0130157470703 180.9712982177734 C 97.12091064453125 180.9712982177734 98.19380187988281 214.3230590820312 98.19380187988281 214.3230590820312 L 98.19380187988281 242.2826080322266 L 78.28926086425781 242.2826080322266 C 78.28926086425781 242.2826080322266 78.14341735839844 242.2919921875 77.86978149414062 242.2919921875 C 74.01510620117188 242.2919921875 44.93748474121094 240.4255218505859 44.93748474121094 184.1666564941406 C 44.93748474121094 131.4897155761719 74.14356994628906 128.1790008544922 81.48802185058594 128.1790008544922 C 82.54425048828125 128.1790008544922 83.14891052246094 128.2475280761719 83.14891052246094 128.2475280761719 L 162.7671203613281 128.2475280761719 L 162.7671203613281 120.1925048828125 L 105.7828674316406 120.1925048828125 L 105.7162780761719 93.36460876464844 C 105.7162780761719 93.36460876464844 101.9873046875 67.46873474121094 161.7019958496094 67.46873474121094 Z M 130.28076171875 106.0130004882812 C 135.9502868652344 106.0130004882812 140.5325927734375 101.4306945800781 140.5325927734375 95.76116943359375 C 140.5325927734375 90.09162902832031 135.9502868652344 85.50935363769531 130.28076171875 85.50935363769531 C 124.6112365722656 85.50935363769531 120.0289154052734 90.09162902832031 120.0289154052734 95.76116943359375 C 120.0289154052734 101.4306945800781 124.6112365722656 106.0130004882812 130.28076171875 106.0130004882812 Z" stroke="none" fill="#67330b"/>
          </g>
          <g id="bottom" transform="translate(-12.684 -36.071)" fill="#d88c35">
            <path d="M 131.1440582275391 268.0712280273438 C 117.2147903442383 268.0712280273438 105.6036682128906 266.4856872558594 96.63321685791016 263.358642578125 C 89.61128997802734 260.9108581542969 84.21440887451172 257.5278930664062 80.59250640869141 253.3038024902344 C 79.18045806884766 251.656982421875 78.03736114501953 249.875244140625 77.19490814208984 248.0080871582031 C 76.52533721923828 246.5240325927734 76.04259490966797 244.9822540283203 75.76010131835938 243.425537109375 C 75.29636383056641 240.8701324462891 75.53466796875 239.1713714599609 75.53721618652344 239.1549377441406 L 75.56064605712891 239.0032196044922 L 75.56064605712891 238.8497314453125 L 75.56064605712891 187.2576599121094 C 75.56064605712891 180.7438201904297 77.02493286132812 175.2119140625 79.91283416748047 170.8155822753906 C 82.22719573974609 167.2923736572266 85.48152923583984 164.4500885009766 89.58547973632812 162.3676300048828 C 96.86319732666016 158.6747436523438 104.3862686157227 158.5681304931641 105.2201232910156 158.5681304931641 C 105.2569351196289 158.5681304931641 105.2789535522461 158.5683441162109 105.2850952148438 158.5684356689453 L 105.3011703491211 158.5686950683594 L 105.3147430419922 158.5686492919922 L 161.8330230712891 158.5686492919922 C 172.4812622070312 158.5686492919922 180.9461212158203 155.4026794433594 186.9924774169922 149.1586761474609 C 189.3284606933594 146.7463684082031 191.2902221679688 143.8716735839844 192.8233184814453 140.6144714355469 C 194.0380554199219 138.0336303710938 194.987548828125 135.2080535888672 195.6454772949219 132.2162322998047 C 196.7196960449219 127.3312759399414 196.6630249023438 123.6192245483398 196.6522369384766 123.1891021728516 L 196.6522369384766 97.25732421875 L 214.5567932128906 97.25732421875 L 214.6294860839844 97.25732421875 L 214.6811065673828 97.25349426269531 C 214.7030029296875 97.25241088867188 214.8048248291016 97.24794006347656 214.9762725830078 97.24794006347656 C 215.8264007568359 97.24794006347656 218.1283111572266 97.35260772705078 221.1342468261719 98.32208251953125 C 224.9378814697266 99.54884338378906 228.4244995117188 101.6781768798828 231.4972839355469 104.6509628295898 C 235.6893768310547 108.7066040039062 239.0258636474609 114.2773666381836 241.4140777587891 121.2085113525391 C 244.3964080810547 129.8639831542969 245.9085540771484 140.6857757568359 245.9085540771484 153.3732757568359 C 245.9085540771484 165.2885894775391 244.3763122558594 175.4755096435547 241.3543853759766 183.6510314941406 C 238.8929595947266 190.3102722167969 235.4253845214844 195.6882934570312 231.0480499267578 199.6357269287109 C 223.3161926269531 206.6082305908203 214.7024993896484 207.3609619140625 211.3580322265625 207.3609619140625 C 210.4908599853516 207.3609619140625 209.9701690673828 207.3099975585938 209.9208526611328 207.3049774169922 L 209.8048400878906 207.2911987304688 L 209.6971282958984 207.2924346923828 L 130.0789337158203 207.2924346923828 L 128.0789337158203 207.2924346923828 L 128.0789337158203 209.2924346923828 L 128.0789337158203 217.3474578857422 L 128.0789337158203 219.3474578857422 L 130.0789337158203 219.3474578857422 L 185.0681610107422 219.3474578857422 L 185.1297912597656 244.1802978515625 L 185.1301879882812 244.3384094238281 L 185.1488952636719 244.4523010253906 C 185.1615142822266 244.5670166015625 185.28076171875 245.7869415283203 184.8758544921875 247.5780334472656 C 184.3096466064453 250.08251953125 183.0392150878906 252.4676818847656 181.0998077392578 254.6672668457031 C 175.7083587646484 260.7820739746094 162.6650238037109 268.0712280273438 131.1440582275391 268.0712280273438 Z M 162.5652923583984 229.5269622802734 C 159.2890319824219 229.5269622802734 156.2113189697266 230.8003692626953 153.8990783691406 233.1126098632812 C 151.5868530273438 235.4248504638672 150.3134613037109 238.5025634765625 150.3134613037109 241.7787933349609 C 150.3134613037109 245.0550384521484 151.5868530273438 248.1327514648438 153.8990783691406 250.4449920654297 C 156.2113189697266 252.7572479248047 159.2890319824219 254.0306549072266 162.5652923583984 254.0306549072266 C 165.841552734375 254.0306549072266 168.9192657470703 252.7572479248047 171.2315063476562 250.4450073242188 C 173.5437622070312 248.1327514648438 174.8171691894531 245.0550384521484 174.817138671875 241.7787933349609 C 174.817138671875 238.5025634765625 173.5437469482422 235.4248504638672 171.2315063476562 233.1126098632812 C 168.9192657470703 230.8003692626953 165.841552734375 229.5269622802734 162.5652923583984 229.5269622802734 Z" stroke="none"/>
            <path d="M 131.1440582275391 266.0712280273438 C 144.9583892822266 266.0712280273438 156.35986328125 264.6513977050781 165.0317840576172 261.8511352539062 C 171.4987335205078 259.7628784179688 176.3582153320312 256.9478759765625 179.4752044677734 253.4843139648438 C 181.1958465576172 251.5723114013672 182.3382110595703 249.5142059326172 182.8705444335938 247.3670959472656 C 183.2261199951172 245.9329681396484 183.1795959472656 244.9237060546875 183.1645812988281 244.7145080566406 L 183.1306762695312 244.5409240722656 L 183.1297912597656 244.1852569580078 L 183.0731048583984 221.3474731445312 L 130.0789489746094 221.3474731445312 L 126.0789489746094 221.3474731445312 L 126.0789489746094 217.3474731445312 L 126.0789489746094 209.2924499511719 L 126.0789489746094 205.2924499511719 L 130.0789489746094 205.2924499511719 L 209.6971282958984 205.2924499511719 L 209.9014129638672 205.2872314453125 L 210.1372985839844 205.3166046142578 C 210.2119598388672 205.3235321044922 210.6486206054688 205.3609619140625 211.3580169677734 205.3609619140625 C 214.4714202880859 205.3609619140625 222.4919738769531 204.6583709716797 229.7086486816406 198.1504364013672 C 233.8432922363281 194.4219207763672 237.1303100585938 189.3103179931641 239.4784393310547 182.9576568603516 C 242.4180450439453 175.0048065185547 243.9085540771484 165.0511779785156 243.9085540771484 153.373291015625 C 243.9085540771484 140.9079895019531 242.43310546875 130.305419921875 239.5231628417969 121.8600463867188 C 237.2384643554688 115.2293930053711 234.0703125 109.9230194091797 230.1066589355469 106.0883636474609 C 223.3770294189453 99.57773590087891 216.3221588134766 99.24794006347656 214.9762573242188 99.24794006347656 C 214.8877716064453 99.24794006347656 214.8276062011719 99.24943542480469 214.7986297607422 99.2503662109375 L 214.7202301025391 99.25730895996094 L 214.5567932128906 99.25730895996094 L 198.6522369384766 99.25730895996094 L 198.6522369384766 123.1650619506836 C 198.683837890625 124.53369140625 198.7924194335938 139.8480529785156 188.4292602539062 150.5499725341797 C 185.4149475097656 153.662841796875 181.7883453369141 156.0882568359375 177.6501770019531 157.7589111328125 C 173.0321350097656 159.6233062744141 167.7104644775391 160.5686492919922 161.8330230712891 160.5686492919922 L 105.3147354125977 160.5686492919922 L 105.2927093505859 160.5690460205078 L 105.2565002441406 160.5682678222656 L 105.2201309204102 160.5681304931641 C 104.8568420410156 160.5681304931641 102.9045791625977 160.5917816162109 100.1416854858398 161.05908203125 C 96.60099792480469 161.6578979492188 93.35386657714844 162.6982116699219 90.49047088623047 164.1511535644531 C 86.70139312744141 166.0738372802734 83.70494842529297 168.6855163574219 81.58444213867188 171.9136505126953 C 78.91444396972656 175.9782562255859 77.56065368652344 181.1407318115234 77.56065368652344 187.2576599121094 L 77.56065368652344 238.8497314453125 L 77.57497406005859 239.1144104003906 L 77.51747894287109 239.4394226074219 C 77.49486541748047 239.6414489746094 77.34242248535156 241.2204284667969 77.80391693115234 243.4604187011719 C 78.45297241210938 246.6108856201172 79.95744323730469 249.5485992431641 82.27555084228516 252.1919708251953 C 85.70371246337891 256.1011352539062 90.8314208984375 259.2489318847656 97.51625823974609 261.5479125976562 C 106.2436294555664 264.5493774414062 117.5576553344727 266.0712280273438 131.1440582275391 266.0712280273438 M 162.5652923583984 227.5269622802734 C 166.3757629394531 227.5269622802734 169.9557037353516 229.0084228515625 172.6457061767578 231.6983947753906 C 175.3356781005859 234.3883972167969 176.8171234130859 237.9683380126953 176.8171234130859 241.7787628173828 C 176.8171539306641 245.5892333984375 175.3357391357422 249.1692047119141 172.6457366943359 251.8592071533203 C 169.9557342529297 254.5492095947266 166.3757629394531 256.0306396484375 162.5652923583984 256.0306396484375 C 158.7548065185547 256.0306396484375 155.1748352050781 254.5492095947266 152.48486328125 251.8592071533203 C 149.7948913574219 249.1692047119141 148.3134460449219 245.5892639160156 148.3134460449219 241.7787780761719 C 148.3134460449219 237.9683380126953 149.7948913574219 234.3883972167969 152.48486328125 231.6983947753906 C 155.1748657226562 229.0084228515625 158.7548065185547 227.5269622802734 162.5652923583984 227.5269622802734 M 131.1440582275391 270.0712280273438 C 68.73952484130859 270.0712280273438 73.56065368652344 238.8497314453125 73.56065368652344 238.8497314453125 C 73.56065368652344 238.8497314453125 73.56065368652344 218.4598846435547 73.56065368652344 187.2576599121094 C 73.56065368652344 157.0475463867188 103.3270034790039 156.5681304931641 105.2201232910156 156.5681304931641 C 105.2823028564453 156.5681304931641 105.3147354125977 156.5686492919922 105.3147354125977 156.5686492919922 C 105.3147354125977 156.5686492919922 127.94091796875 156.5686492919922 161.8330230712891 156.5686492919922 C 195.7251892089844 156.5686492919922 194.6522369384766 123.2168884277344 194.6522369384766 123.2168884277344 L 194.6522369384766 95.25730895996094 L 214.5567932128906 95.25730895996094 C 214.5567932128906 95.25730895996094 214.7026214599609 95.24794006347656 214.9762573242188 95.24794006347656 C 218.8309326171875 95.24794006347656 247.9085693359375 97.11442565917969 247.9085540771484 153.373291015625 C 247.9085540771484 206.0502471923828 218.7024688720703 209.3609771728516 211.3580322265625 209.3609771728516 C 210.3017883300781 209.3609771728516 209.6971282958984 209.2924499511719 209.6971282958984 209.2924499511719 L 130.0789489746094 209.2924499511719 L 130.0789489746094 217.3474731445312 L 187.0632019042969 217.3474731445312 L 187.1297912597656 244.1753387451172 C 187.1297912597656 244.1753387451172 190.8587646484375 270.0712280273438 131.1440582275391 270.0712280273438 Z M 162.5652923583984 231.5269622802734 C 156.8957672119141 231.5269622802734 152.3134460449219 236.1093139648438 152.3134460449219 241.7787780761719 C 152.3134460449219 247.4482879638672 156.8957672119141 252.0306549072266 162.5652923583984 252.0306549072266 C 168.2348175048828 252.0306549072266 172.8171844482422 247.4482879638672 172.8171234130859 241.7787780761719 C 172.8171234130859 236.1093139648438 168.2348175048828 231.5269622802734 162.5652923583984 231.5269622802734 Z" stroke="none" fill="#67330b"/>
          </g>
        </g>
      </g>
      <path id="syrup_base" data-name="syrup base" d="M328,72V41.889A23.909,23.909,0,0,1,312,48H24a23.918,23.918,0,0,1-16.329-6.41A4,4,0,0,1,0,40V24A24,24,0,0,1,24,0H312a24,24,0,0,1,24,24V72a4,4,0,0,1-8,0Z" transform="translate(92 196)" fill="#d88c35"/>
      <g id="pancakes" transform="translate(-39 -21)">
        <rect id="Rectangle_4" data-name="Rectangle 4" width="320" height="40" rx="20" transform="translate(123 349)" stroke-width="8" stroke="#b27b43" stroke-linecap="round" stroke-linejoin="round" fill="#ffd688"/>
        <rect id="Rectangle_5" data-name="Rectangle 5" width="320" height="40" rx="20" transform="translate(139 229)" stroke-width="8" stroke="#b27b43" stroke-linecap="round" stroke-linejoin="round" fill="#ffd688"/>
        <rect id="Rectangle_6" data-name="Rectangle 6" width="320" height="40" rx="20" transform="translate(123 269)" stroke-width="8" stroke="#b27b43" stroke-linecap="round" stroke-linejoin="round" fill="#ffd688"/>
        <rect id="Rectangle_7" data-name="Rectangle 7" width="320" height="40" rx="20" transform="translate(129 309)" stroke-width="8" stroke="#b27b43" stroke-linecap="round" stroke-linejoin="round" fill="#ffd688"/>
      </g>
      <g id="syrup_drizzle" data-name="syrup drizzle" transform="translate(-39 -21)">
        <path id="drip_5" data-name="drip 5" d="M0,0H24a0,0,0,0,1,0,0V22A12,12,0,0,1,12,34h0A12,12,0,0,1,0,22V0A0,0,0,0,1,0,0Z" transform="translate(159 225)" fill="#d8a662" style="mix-blend-mode: multiply;isolation: isolate"/>
        <path id="drip_4" data-name="drip 4" d="M0,0H24a0,0,0,0,1,0,0V28A12,12,0,0,1,12,40h0A12,12,0,0,1,0,28V0A0,0,0,0,1,0,0Z" transform="translate(195 225)" fill="#d8a662" style="mix-blend-mode: multiply;isolation: isolate"/>
        <path id="drip_3" data-name="drip 3" d="M0,0H24a0,0,0,0,1,0,0V6A12,12,0,0,1,12,18h0A12,12,0,0,1,0,6V0A0,0,0,0,1,0,0Z" transform="translate(243 225)" fill="#d8a662" style="mix-blend-mode: multiply;isolation: isolate"/>
        <path id="drizzle_2" data-name="drizzle 2" d="M0,54V38H16V-2H40V46H8a8,8,0,1,1-8,8Z" transform="translate(272 227)" fill="#d8a662" style="mix-blend-mode: multiply;isolation: isolate"/>
        <path id="drip_2" data-name="drip 2" d="M0,0H24a0,0,0,0,1,0,0V14A12,12,0,0,1,12,26h0A12,12,0,0,1,0,14V0A0,0,0,0,1,0,0Z" transform="translate(336 225)" fill="#d8a662" style="mix-blend-mode: multiply;isolation: isolate"/>
        <path id="drizzle_1" data-name="drizzle 1" d="M16,58V18H8V10H8V-11a8,8,0,0,1,8-8,8,8,0,0,1,8,8V2a8,8,0,0,1-8,8H40V58Z" transform="translate(424 283) rotate(180)" fill="#d8a662" style="mix-blend-mode: multiply;isolation: isolate"/>
        <path id="drip_1" data-name="drip 1" d="M0,0H24a0,0,0,0,1,0,0V6A12,12,0,0,1,12,18h0A12,12,0,0,1,0,6V0A0,0,0,0,1,0,0Z" transform="translate(418 225)" fill="#d8a662" style="mix-blend-mode: multiply;isolation: isolate"/>
      </g>
    </g>
    <ellipse id="highlight" cx="78" cy="32" rx="78" ry="32" transform="matrix(0.94, 0.342, -0.342, 0.94, 270.879, 16.288)" fill="url(#radial-gradient-3)"/>
  </g>
</svg>
